<svg width="512" height="512" viewBox="0 0 512 512" fill="none" xmlns="http://www.w3.org/2000/svg">
<path d="M81.5106 430.08C58.1634 405.562 40.4482 378.387 28.365 348.557C16.2818 318.726 10.2402 287.874 10.2402 256C10.2402 224.126 16.2818 193.274 28.365 163.443C40.4482 133.613 58.1634 106.438 81.5106 81.9199L111.002 111.342C91.341 130.957 76.5954 153.534 66.765 179.074C56.9346 204.614 52.0194 230.256 52.0194 256C52.0194 281.744 56.9346 307.386 66.765 332.926C76.5954 358.466 91.341 381.043 111.002 400.658L81.5106 430.08ZM140.493 371.236C124.519 355.299 112.333 337.319 103.936 317.296C95.5394 297.272 91.341 276.84 91.341 256C91.341 235.159 95.5394 214.727 103.936 194.704C112.333 174.681 124.519 156.701 140.493 140.764L169.984 170.186C157.696 181.219 148.48 194.296 142.336 209.415C136.192 224.535 133.12 240.063 133.12 256C133.12 270.711 136.192 285.626 142.336 300.746C148.48 315.865 157.696 329.555 169.984 341.814L140.493 371.236ZM371.507 371.236L342.016 341.814C354.304 330.781 363.52 317.704 369.664 302.585C375.808 287.465 378.88 271.937 378.88 256C378.88 241.289 375.808 226.374 369.664 211.254C363.52 196.134 354.304 182.445 342.016 170.186L371.507 140.764C387.482 156.701 399.36 174.681 407.143 194.704C414.925 214.727 419.431 235.159 420.659 256C420.659 276.84 416.461 297.272 408.064 317.296C399.667 337.319 387.482 355.299 371.507 371.236ZM430.49 430.08L400.999 400.658C420.66 381.043 435.405 358.466 445.235 332.926C455.066 307.386 459.981 281.744 459.981 256C459.981 230.256 455.066 204.614 445.235 179.074C435.405 153.534 420.66 130.957 400.999 111.342L430.49 81.9199C453.837 106.438 471.552 133.613 483.636 163.443C495.719 193.274 501.76 224.126 501.76 256C501.76 287.874 496.026 318.726 484.557 348.557C473.088 378.387 455.066 405.562 430.49 430.08Z" fill="url(#paint0_linear_54_36)"/>
<path fill-rule="evenodd" clip-rule="evenodd" d="M254.318 218.357C252.066 219.218 224.859 235.873 223.498 237.158C221.132 239.39 222.127 271.074 224.285 274.798C227.417 280.201 253.438 292.914 256.5 293.684C258.584 296.104 256.846 294.796 282.902 279.423C291.519 274.339 290.892 276.222 290.892 255.429C290.892 245.151 291.239 237.504 290.37 236.985C292.629 234.911 284.425 232.381 275.433 227.301C257.984 217.445 257.376 217.188 254.318 218.357Z" fill="#D6F0FF"/>
<path fill-rule="evenodd" clip-rule="evenodd" d="M207.518 229.379C207.248 230.444 206.957 239.537 206.962 257.104C206.972 288.207 205.958 284.722 215.16 289.881C222.984 294.268 229.967 298.514 241.215 304.747C246.468 307.849 250.519 309.845 253.158 310.97C255.53 311.982 257.153 312.007 257.674 311.662C257.889 311.489 257.674 303.191 257.674 302.915C257.674 293.745 258.075 293.747 256.674 293.511C255.002 293.23 253.89 292.858 240.478 285.287C220.683 274.113 223.217 278.535 223.352 255.395L223.456 237.449L220.677 235.774C208.529 228.455 208.036 227.332 207.518 229.379Z" fill="#041619"/>
<path fill-rule="evenodd" clip-rule="evenodd" d="M175.179 211.294C173.824 214.781 173.807 215.414 173.903 258.511C174.019 310.645 172.043 303.982 190.322 313.887C191.66 314.612 196.662 317.416 201.439 320.117C206.215 322.819 214.97 327.753 220.893 331.082C252.309 348.742 251.129 348.144 255.371 348.548L257.716 348.754V330.42C257.716 328.339 260.09 314.534 258.063 311.845C257.866 311.583 256.77 311.885 256.5 311.845C254.161 311.504 252.664 311.064 241.215 304.584C230.077 298.28 222.985 294.281 215.161 289.895C205.957 284.735 207.004 288.218 206.997 257.037C207.508 232.491 207.08 229.115 208.039 228.515C208.253 228.381 180.576 212.903 175.818 210.457C175.675 210.383 175.387 210.76 175.179 211.294Z" fill="#083042"/>
<path fill-rule="evenodd" clip-rule="evenodd" d="M252.891 199.993C251.936 200.345 248.553 202.178 245.373 204.065C242.193 205.951 233.24 211.224 225.478 215.783C211.738 223.851 209.937 225.396 208.039 227.651C207.132 228.728 207.653 228.028 212.208 230.532C214.466 232.145 215.856 233.009 217.94 234.046C220.243 235.493 223.363 237.698 223.363 237.4C224.058 236.709 226.142 235.499 230.832 232.387C234.637 230.096 240.495 226.801 248.375 221.67C256.886 216.829 256.809 217.138 265.88 221.946C268.268 223.289 274.169 226.382 278.946 229.071C284.323 232.098 288.556 235.314 289.328 236.121C290.576 237.424 290.126 236.564 292.873 234.715C294.384 233.699 297.887 231.524 300.658 229.882C303.428 228.241 305.813 226.773 305.958 226.62C306.103 226.467 306.112 226.423 305.978 226.521C305.844 226.62 304.944 225.935 303.978 224.999C302.85 223.907 300.23 222.193 296.663 220.215C291.481 217.341 268.937 204.641 265.05 202.406C259.778 199.375 256.386 198.702 252.891 199.993Z" fill="#37BF6E"/>
<path fill-rule="evenodd" clip-rule="evenodd" d="M249.726 163.864C247.84 164.458 247.055 164.879 238.262 170.018C234.059 172.474 230.307 174.662 229.925 174.88C229.543 175.098 223.837 178.45 217.245 182.329C204.218 189.996 194.729 195.569 186.327 200.487C179.661 204.39 174.512 209.232 175.789 210.397C176.064 210.649 184.768 215.542 195.012 221.205C197.591 222.631 201.41 224.75 203.497 225.915C207.969 228.409 207.526 229.176 208.56 227.651C209.678 226.002 210.867 224.423 226.277 215.385C233.633 211.07 242.305 205.98 245.547 204.073C255.009 198.507 257.085 198.36 264.664 202.718C268.551 204.953 291.094 217.652 296.276 220.526C299.83 222.497 303.496 224.667 304.613 225.749C306.362 227.442 305.829 227.305 308.967 224.805C310.967 223.6 318.036 219.391 324.675 215.452C331.315 211.512 337.442 208.338 337.442 208.117C337.442 207.092 331.58 202.548 327.889 200.492C325.787 199.321 320.003 196.075 315.035 193.278C310.068 190.48 300.297 185.001 293.323 181.102C286.349 177.203 276.909 171.901 272.344 169.319C261.601 163.242 255.997 161.891 249.726 163.864Z" fill="#3DDC84"/>
<path fill-rule="evenodd" clip-rule="evenodd" d="M301.487 229.231C291.805 234.986 291.065 236.121 290.197 236.812C290.8 237.412 291.473 269.517 290.894 272.155C290.144 275.575 289.39 276.12 269.353 287.72C266.583 289.324 263.407 291.183 262.295 291.851C261.183 292.519 258.618 293.587 257.89 293.684C257.369 294.203 257.89 293.684 257.665 320.95C257.692 339.709 257.735 342.678 257.8 330.268C257.896 312.055 257.896 312.055 259.766 311.669C261.703 311.269 262.83 310.644 282.207 299.227C287.461 296.131 294.347 292.076 297.51 290.216C308.22 283.914 307.393 286.835 307.393 255.309C307.74 223.675 307.914 224.02 301.487 229.231ZM223.312 256.519C223.312 265.836 223.356 269.598 223.411 264.879C223.466 260.159 223.465 252.536 223.411 247.938C223.356 243.34 223.312 247.201 223.312 256.519Z" fill="#3870B2"/>
<path fill-rule="evenodd" clip-rule="evenodd" d="M321.712 217.266C303.49 228.104 305.599 226.553 306.587 228.395C307.393 229.898 307.393 229.898 307.393 255.309C307.393 286.835 308.22 283.914 297.51 290.216C294.347 292.076 287.461 296.131 282.207 299.227C262.822 310.648 260.872 311.269 258.932 311.669C257.058 312.057 257.716 312.114 257.716 330.462V348.753L259.887 348.543C263.861 348.127 264.681 347.712 283.944 336.396C284.995 335.778 288.512 333.711 291.76 331.803C295.008 329.895 303.293 325.027 310.172 320.986C344.23 300.977 340.554 308.966 340.562 254.949C340.569 212.493 340.643 214.182 338.579 210.084C338.07 209.074 337.567 208.195 337.461 208.131C337.355 208.066 330.268 212.177 321.712 217.266ZM291.052 255.481C291.052 264.418 291.097 268.124 291.152 263.716C291.207 259.308 291.207 251.996 291.152 247.467C291.097 242.938 291.052 246.544 291.052 255.481Z" fill="#4285F4"/>
<defs>
<linearGradient id="paint0_linear_54_36" x1="256" y1="81.9199" x2="256" y2="430.08" gradientUnits="userSpaceOnUse">
<stop stop-color="#3DDC84"/>
<stop offset="1" stop-color="#4285F4"/>
</linearGradient>
</defs>
</svg>
